<?xml version="1.0" encoding="utf-8"?>
<!-- Generator: Adobe Illustrator 24.0.0, SVG Export Plug-In . SVG Version: 6.00 Build 0)  -->
<svg version="1.1" id="Layer_1" xmlns="http://www.w3.org/2000/svg" xmlns:xlink="http://www.w3.org/1999/xlink" x="0px" y="0px"
	 viewBox="0 0 11 11" style="enable-background:new 0 0 11 11;" xml:space="preserve">
<style type="text/css">
	.st0{fill:#0F5A47;}
</style>
<g>
	<path class="st0" d="M10.8,9.8c-0.2,0.4-0.6,0.6-1,0.8C9.3,10.9,8.9,11,8.4,11c-0.7,0-1.4-0.3-2-0.5C5.9,10.3,5.5,10.1,5,9.9
		C3.6,9,2,7.4,1.2,6.1C0.9,5.6,0.7,5.2,0.5,4.7C0.3,4,0,3.4,0,2.6c0-0.5,0.1-1,0.4-1.5c0.2-0.4,0.4-0.8,0.8-1C1.5,0.1,2,0,2.3,0
		c0.1,0,0.1,0,0.2,0c0.2,0.1,0.3,0.4,0.4,0.6C3.1,1.1,3.4,1.5,3.6,2C3.8,2.2,4,2.4,4,2.6c0,0.5-1.4,1.2-1.4,1.6
		c0,0.2,0.2,0.5,0.3,0.7c0.8,1.4,1.8,2.4,3.2,3.2c0.2,0.1,0.5,0.3,0.7,0.3C7.2,8.4,7.9,7,8.4,7C8.6,7,8.8,7.2,9,7.4
		c0.4,0.3,0.9,0.5,1.3,0.8c0.2,0.1,0.5,0.3,0.6,0.4c0,0.1,0,0.1,0,0.2C11,9,10.9,9.5,10.8,9.8z"/>
</g>
</svg>
