<svg version="1.1" id="_x31_" xmlns="http://www.w3.org/2000/svg" x="0" y="0" viewBox="0 0 15.2 15.2" xml:space="preserve"><style>.st0{fill:none;stroke:#b9ddf6;stroke-width:.5;stroke-miterlimit:10}</style><g id="_x31__1_"><path id="_x35_" class="st0" d="M10.1 3.8S10.4.4 6.3.4H3.8S1 .4.4 2.6v6.1c0 .4.6 2.4 3.6 2.4"/><path id="_x34_" class="st0" d="M14.8 6.8v6.3c0 1.7-1.6 1.6-1.6 1.6H6.8c-1.4 0-1.5-.8-1.5-.8v-3.4c0-1.7 1.2-1.6 1.2-1.6h6.2c1.5 0 2.1-.7 2.1-2.1s-1.4-1.7-1.4-1.7H4.1C2.2 5.1.9 3.7.9 3.7l-.5-.5"/><path id="_x33_" class="st0" d="M8.9 10.8V9"/><path id="_x32_" class="st0" d="M12.6 10.8V8.9"/><ellipse id="_x31__2_" cx="5.3" cy="2.9" rx="1" ry=".4" stroke="#b9ddf6" stroke-miterlimit="10"/></g></svg>