<svg version="1.1" id="_x31__2_" xmlns="http://www.w3.org/2000/svg" x="0" y="0" viewBox="0 0 18.2 14.8" xml:space="preserve"><style>.st0{fill:none;stroke:#b9ddf6;stroke-width:.5;stroke-miterlimit:10}</style><path id="_x35_" class="st0" d="M11.2 3.8h3.6s.4 0 .9.5c.2.2.4.5.7.9.5.7 1.1 1.4 1.1 1.4s.4.4.4 1.1v3.5s.1.8-1.1.8H16"/><circle id="_x34_" class="st0" cx="4.7" cy="12.4" r="1.9"/><circle id="_x33_" class="st0" cx="14.1" cy="12.4" r="1.9"/><g id="_x32_"><circle id="_x33__1_" class="st0" cx="4" cy="4.2" r="3.7"/><path id="_x32__1_" class="st0" d="M2.7 5.5l1.4-1.1V1.9"/></g><path id="_x31_" class="st0" d="M17.7 8.1h-4s-.6-.1-.6-.8V5.8s0-.5.7-.5h2.5"/><path id="_x33__2_" class="st0" d="M12.2 12H10"/><path id="_x32__2_" class="st0" d="M1.1 6.5v4.8s0 .7.8.7h.9"/><path id="_x31__3_" class="st0" d="M6.6 12h3.5s.9.1.9-.9V3s0-.8-.9-.8H7.2"/></svg>