<svg version="1.1" id="_x31_" xmlns="http://www.w3.org/2000/svg" x="0" y="0" viewBox="0 0 20.6 20.8" xml:space="preserve"><style>.st0{fill:none;stroke:#000;stroke-width:.75;stroke-miterlimit:10}</style><g id="_x31__1_"><circle id="_x34_" class="st0" cx="10.3" cy="10.4" r="9.8"/><path id="_x33_" class="st0" d="M4.1 12.8s2.4 3.3 6.1 3.3 5.9-3.3 5.9-3.3"/><g id="_x32_"><path id="_x33__1_" class="st0" d="M6.9 11.1S4.3 9.7 4.3 8.4c-.1-1.2 1.4-2.1 2.6-.6"/><path id="_x32__1_" class="st0" d="M6.5 11.1s2.6-1.4 2.6-2.7c.1-1.2-1.4-2.1-2.6-.7"/><path id="_x31__3_" d="M6.6 8l.1.1.1-.1v-.2l-.2.1z"/></g><g id="_x31__2_"><path id="_x33__2_" class="st0" d="M13.7 11.1s-2.6-1.4-2.6-2.7c-.1-1.2 1.4-2.1 2.6-.7"/><path id="_x32__2_" class="st0" d="M13.3 11.1s2.6-1.4 2.6-2.7c.1-1.2-1.4-2.1-2.6-.7"/><path id="_x31__4_" d="M13.4 8l.1.1.1-.1v-.2l-.2.1z"/></g></g></svg>