<svg version="1.1" id="_x31_" xmlns="http://www.w3.org/2000/svg" x="0" y="0" viewBox="0 0 18.8 20" xml:space="preserve"><style>.st0{fill:none;stroke:#000;stroke-width:.75;stroke-miterlimit:10}</style><ellipse id="_x33_" transform="matrix(.9981 -.06105 .06105 .9981 -.2 .565)" class="st0" cx="9.2" cy="3.6" rx="2.7" ry="3.1"/><path id="_x32_" class="st0" d="M4.8 18.5s-.1-3.4.2-4.9c.2-1.5 1-2.4.7-3.3 0 0-.8-1.2-1.4-1.8S1.2 4.8 1.2 4.8s-.5-.7 0-1.1c.5-.3 1.1-.3 1.3-.1.2.2 2.2 2.3 2.2 2.3s2 2.1 4 2.1 3-.6 3.3-.8c.2-.2 1.2-.8 1.7-1.2l2.5-2s.7-.7 1.1-.5c0 0 .5.1.7.5.2.4-.6 1.2-.6 1.2l-2.2 2.2s-2.3 2.6-2.4 4.3c0 0-.2 1.8.2 3.6s1 3.1 1 3.1"/><g id="_x31__1_"><path id="_x34_" d="M17.1 5.4l-.5.5c.9 1.4 1.4 3 1.4 4.6 0 2.4-1 4.4-2.5 6l.5.5c1.7-1.7 2.8-4.1 2.8-6.6-.2-1.7-.8-3.5-1.7-5z"/><path id="_x33__1_" d="M11.5 2.3c1.6.4 3 1.2 4 2.3l.5-.5c-1.3-1.4-3.1-2.3-5-2.7l.5.9z"/><path id="_x32__1_" d="M7.1 1.6C5.5 2 4 2.9 2.9 4l.5.5c.9-.9 2.1-1.6 3.4-2.1l.3-.8z"/><path id="_x31__2_" d="M14.1 17.8c-1.4.9-3 1.5-4.7 1.5-4.7 0-8.6-3.9-8.6-8.6C.8 9 1.3 7.5 2 6.1l-.5-.6C.6 7 0 8.7 0 10.5c0 5.1 4.1 9.3 9.3 9.3 1.9 0 3.6-.6 5-1.5l-.2-.5z"/></g></svg>