<svg xmlns="http://www.w3.org/2000/svg" viewBox="0 0 46 57"><path d="M23 0C15 0 0 6 0 23s23 34 23 34 23-17 23-34S31 0 23 0z" fill="#0f5a47"/><path d="M8.8 17.5c0-1.3.4-2.5 1.3-3.4.9-.9 2-1.3 3.3-1.3 1.4 0 2.5.4 3.4 1.2l-.6 1c-.3-.3-.7-.5-1.2-.7s-1-.3-1.4-.3c-1 0-1.9.3-2.5 1-.6.7-.9 1.5-.9 2.5s.3 1.9.9 2.6 1.5 1.1 2.5 1.1c.5 0 1-.1 1.5-.3.5-.2.9-.5 1.3-.9l.7.9c-1 1-2.2 1.5-3.5 1.5s-2.5-.5-3.4-1.4c-1-1-1.4-2.2-1.4-3.5zm9.8 4.6v-9.2h1.3v4h4.8v-4H26v9.2h-1.3v-4h-4.8v4h-1.3zm9.2-4.7c0-1.3.4-2.4 1.3-3.3.9-.9 2-1.3 3.4-1.3s2.5.4 3.4 1.3c.9.9 1.3 2 1.3 3.3 0 1.4-.4 2.5-1.3 3.4s-2 1.4-3.4 1.4-2.5-.5-3.4-1.4c-.8-.9-1.3-2-1.3-3.4zm1.3 0c0 1 .3 1.9 1 2.6s1.5 1 2.4 1c1 0 1.8-.3 2.4-1 .6-.7 1-1.6 1-2.6s-.3-1.8-1-2.5c-.6-.7-1.4-1-2.4-1s-1.8.3-2.4 1c-.6.7-1 1.5-1 2.5zM9.2 29.5c0-1.3.4-2.5 1.3-3.4.9-.9 2-1.3 3.3-1.3 1.4 0 2.5.4 3.4 1.2l-.6 1c-.3-.3-.7-.5-1.2-.7s-1-.3-1.4-.3c-1 0-1.9.3-2.5 1-.6.7-.9 1.5-.9 2.5s.3 1.9.9 2.6 1.5 1.1 2.5 1.1c.5 0 1-.1 1.5-.3.5-.2.9-.5 1.3-.9l.7.9c-1 1-2.2 1.5-3.5 1.5s-2.5-.5-3.4-1.4c-1-1-1.4-2.2-1.4-3.5zm9.1 0c0-1.3.4-2.5 1.3-3.4.9-.9 2-1.3 3.3-1.3 1.4 0 2.5.4 3.4 1.2l-.7 1c-.3-.3-.7-.5-1.2-.7s-1-.3-1.4-.3c-1 0-1.9.3-2.5 1-.6.7-.9 1.5-.9 2.5s.3 1.9.9 2.6 1.5 1.1 2.5 1.1c.5 0 1-.1 1.5-.3.5-.2.9-.5 1.3-.9l.7.9c-1 1-2.2 1.5-3.5 1.5-1.4 0-2.5-.5-3.4-1.4-.9-1-1.3-2.2-1.3-3.5zm9.1-.1c0-1.3.4-2.4 1.3-3.3.9-.9 2-1.3 3.4-1.3s2.5.4 3.4 1.3c.9.9 1.3 2 1.3 3.3 0 1.4-.4 2.5-1.3 3.4s-2 1.4-3.4 1.4-2.5-.5-3.4-1.4c-.9-.9-1.3-2-1.3-3.4zm1.3 0c0 1 .3 1.9 1 2.6s1.5 1 2.4 1c1 0 1.8-.3 2.4-1 .6-.7 1-1.6 1-2.6s-.3-1.8-1-2.5c-.6-.7-1.4-1-2.4-1s-1.8.3-2.4 1c-.7.7-1 1.5-1 2.5z" fill="#fff"/></svg>